<?xml version="1.0" encoding="UTF-8" standalone="no"?><svg height="500" width="1000" xmlns="http://www.w3.org/2000/svg" version="1.1"><rect x="0" y="0" width="1000" height="500" style="fill:rgb(255,255,255);stroke:rgb(0,0,0);stroke-width:1.4142135623731" /><line x1="105" y1="456.25" x2="955" y2="456.25" style="stroke:rgb(0,0,0);stroke-width:1.20208152801713" /><line x1="226.428571428571" y1="458.375" x2="226.428571428571" y2="454.125" style="stroke:rgb(0,0,0);stroke-width:0.601040764008565" /><text x="226.428571428571" y="460.5" font-family="monospace" fill="rgb(0,0,0)" transform="rotate(0 226.428571428571,460.5)" font-size="12" dominant-baseline="hanging" text-anchor="middle">0,00000%</text><line x1="226.428571428571" y1="456.25" x2="226.428571428571" y2="31.25" style="stroke:rgb(0,0,0);stroke-width:0.300520382004283" /><line x1="347.857142857143" y1="458.375" x2="347.857142857143" y2="454.125" style="stroke:rgb(0,0,0);stroke-width:0.601040764008565" /><text x="347.857142857143" y="460.5" font-family="monospace" fill="rgb(0,0,0)" transform="rotate(0 347.857142857143,460.5)" font-size="12" dominant-baseline="hanging" text-anchor="middle">0,00001%</text><line x1="347.857142857143" y1="456.25" x2="347.857142857143" y2="31.25" style="stroke:rgb(0,0,0);stroke-width:0.300520382004283" /><line x1="469.285714285714" y1="458.375" x2="469.285714285714" y2="454.125" style="stroke:rgb(0,0,0);stroke-width:0.601040764008565" /><text x="469.285714285714" y="460.5" font-family="monospace" fill="rgb(0,0,0)" transform="rotate(0 469.285714285714,460.5)" font-size="12" dominant-baseline="hanging" text-anchor="middle">0,00010%</text><line x1="469.285714285714" y1="456.25" x2="469.285714285714" y2="31.25" style="stroke:rgb(0,0,0);stroke-width:0.300520382004283" /><line x1="590.714285714286" y1="458.375" x2="590.714285714286" y2="454.125" style="stroke:rgb(0,0,0);stroke-width:0.601040764008565" /><text x="590.714285714286" y="460.5" font-family="monospace" fill="rgb(0,0,0)" transform="rotate(0 590.714285714286,460.5)" font-size="12" dominant-baseline="hanging" text-anchor="middle">0,00100%</text><line x1="590.714285714286" y1="456.25" x2="590.714285714286" y2="31.25" style="stroke:rgb(0,0,0);stroke-width:0.300520382004283" /><line x1="712.142857142857" y1="458.375" x2="712.142857142857" y2="454.125" style="stroke:rgb(0,0,0);stroke-width:0.601040764008565" /><text x="712.142857142857" y="460.5" font-family="monospace" fill="rgb(0,0,0)" transform="rotate(0 712.142857142857,460.5)" font-size="12" dominant-baseline="hanging" text-anchor="middle">0,01000%</text><line x1="712.142857142857" y1="456.25" x2="712.142857142857" y2="31.25" style="stroke:rgb(0,0,0);stroke-width:0.300520382004283" /><line x1="833.571428571428" y1="458.375" x2="833.571428571428" y2="454.125" style="stroke:rgb(0,0,0);stroke-width:0.601040764008565" /><text x="833.571428571428" y="460.5" font-family="monospace" fill="rgb(0,0,0)" transform="rotate(0 833.571428571428,460.5)" font-size="12" dominant-baseline="hanging" text-anchor="middle">0,10000%</text><line x1="833.571428571428" y1="456.25" x2="833.571428571428" y2="31.25" style="stroke:rgb(0,0,0);stroke-width:0.300520382004283" /><line x1="955" y1="458.375" x2="955" y2="454.125" style="stroke:rgb(0,0,0);stroke-width:0.601040764008565" /><text x="955" y="460.5" font-family="monospace" fill="rgb(0,0,0)" transform="rotate(0 955,460.5)" font-size="12" dominant-baseline="hanging" text-anchor="middle">1,00000%</text><line x1="955" y1="456.25" x2="955" y2="31.25" style="stroke:rgb(0,0,0);stroke-width:0.300520382004283" /><text x="530" y="473.25" font-family="monospace" fill="rgb(0,0,0)" transform="rotate(0 530,473.25)" font-size="12" dominant-baseline="hanging" text-anchor="middle">Infected Population Total [%]</text><line x1="105" y1="456.25" x2="105" y2="31.25" style="stroke:rgb(0,0,0);stroke-width:1.20208152801713" /><line x1="100.75" y1="385.416666666667" x2="109.25" y2="385.416666666667" style="stroke:rgb(0,0,0);stroke-width:0.601040764008565" /><text x="96.5" y="385.416666666667" font-family="monospace" fill="rgb(0,0,0)" transform="rotate(0 96.5,385.416666666667)" font-size="12" dominant-baseline="middle" text-anchor="end">0,00000%</text><line x1="105" y1="385.416666666667" x2="955" y2="385.416666666667" style="stroke:rgb(0,0,0);stroke-width:0.300520382004283" /><line x1="100.75" y1="314.583333333333" x2="109.25" y2="314.583333333333" style="stroke:rgb(0,0,0);stroke-width:0.601040764008565" /><text x="96.5" y="314.583333333333" font-family="monospace" fill="rgb(0,0,0)" transform="rotate(0 96.5,314.583333333333)" font-size="12" dominant-baseline="middle" text-anchor="end">0,00001%</text><line x1="105" y1="314.583333333333" x2="955" y2="314.583333333333" style="stroke:rgb(0,0,0);stroke-width:0.300520382004283" /><line x1="100.75" y1="243.75" x2="109.25" y2="243.75" style="stroke:rgb(0,0,0);stroke-width:0.601040764008565" /><text x="96.5" y="243.75" font-family="monospace" fill="rgb(0,0,0)" transform="rotate(0 96.5,243.75)" font-size="12" dominant-baseline="middle" text-anchor="end">0,00010%</text><line x1="105" y1="243.75" x2="955" y2="243.75" style="stroke:rgb(0,0,0);stroke-width:0.300520382004283" /><line x1="100.75" y1="172.916666666667" x2="109.25" y2="172.916666666667" style="stroke:rgb(0,0,0);stroke-width:0.601040764008565" /><text x="96.5" y="172.916666666667" font-family="monospace" fill="rgb(0,0,0)" transform="rotate(0 96.5,172.916666666667)" font-size="12" dominant-baseline="middle" text-anchor="end">0,00100%</text><line x1="105" y1="172.916666666667" x2="955" y2="172.916666666667" style="stroke:rgb(0,0,0);stroke-width:0.300520382004283" /><line x1="100.75" y1="102.083333333333" x2="109.25" y2="102.083333333333" style="stroke:rgb(0,0,0);stroke-width:0.601040764008565" /><text x="96.5" y="102.083333333333" font-family="monospace" fill="rgb(0,0,0)" transform="rotate(0 96.5,102.083333333333)" font-size="12" dominant-baseline="middle" text-anchor="end">0,01000%</text><line x1="105" y1="102.083333333333" x2="955" y2="102.083333333333" style="stroke:rgb(0,0,0);stroke-width:0.300520382004283" /><line x1="100.75" y1="31.25" x2="109.25" y2="31.25" style="stroke:rgb(0,0,0);stroke-width:0.601040764008565" /><text x="96.5" y="31.25" font-family="monospace" fill="rgb(0,0,0)" transform="rotate(0 96.5,31.25)" font-size="12" dominant-baseline="middle" text-anchor="end">0,10000%</text><line x1="105" y1="31.25" x2="955" y2="31.25" style="stroke:rgb(0,0,0);stroke-width:0.300520382004283" /><text x="96.5" y="208.333333333333" font-family="monospace" fill="rgb(0,0,0)" transform="rotate(270 96.5,208.333333333333)" font-size="12" dominant-baseline="middle" text-anchor="middle">Infected Population Growth [%]</text><circle cx="390.54088067883" cy="289.684486270682" r="3.00520382004283" fill="rgb(179,0,0)" /><circle cx="411.92339070702" cy="311.007444296881" r="3.00520382004283" fill="rgb(179,0,0)" /><circle cx="469.859543065836" cy="255.888397394706" r="3.00520382004283" fill="rgb(179,0,0)" /><circle cx="493.159928394847" cy="261.497068989746" r="3.00520382004283" fill="rgb(179,0,0)" /><circle cx="506.413185396462" cy="268.361528244484" r="3.00520382004283" fill="rgb(179,0,0)" /><circle cx="514.542438423037" cy="277.211355420905" r="3.00520382004283" fill="rgb(179,0,0)" /><circle cx="531.564138093077" cy="247.038570218285" r="3.00520382004283" fill="rgb(179,0,0)" /><circle cx="549.825278092743" cy="234.565439368508" r="3.00520382004283" fill="rgb(179,0,0)" /><circle cx="565.316993501076" cy="229.823375103006" r="3.00520382004283" fill="rgb(179,0,0)" /><circle cx="584.413385147757" cy="213.242481342309" r="3.00520382004283" fill="rgb(179,0,0)" /><circle cx="598.912715263056" cy="211.986693682612" r="3.00520382004283" fill="rgb(179,0,0)" /><circle cx="611.084467106404" cy="209.619177668953" r="3.00520382004283" fill="rgb(179,0,0)" /><circle cx="628.42447831782" cy="190.054556823277" r="3.00520382004283" fill="rgb(179,0,0)" /><circle cx="644.315072782185" cy="183.069696139689" r="3.00520382004283" fill="rgb(179,0,0)" /><circle cx="655.130938564429" cy="187.177459050609" r="3.00520382004283" fill="rgb(179,0,0)" /><circle cx="682.139517773732" cy="147.711722294412" r="3.00520382004283" fill="rgb(179,0,0)" /><circle cx="695.959396204349" cy="156.663243863615" r="3.00520382004283" fill="rgb(179,0,0)" /><circle cx="710.319193142066" cy="147.258212472099" r="3.00520382004283" fill="rgb(179,0,0)" /><circle cx="719.213754248294" cy="155.269233970943" r="3.00520382004283" fill="rgb(179,0,0)" /><circle cx="733.391322792367" cy="134.141594225028" r="3.00520382004283" fill="rgb(179,0,0)" /><circle cx="744.553717811748" cy="134.141594225028" r="3.00520382004283" fill="rgb(179,0,0)" /><circle cx="755.168268156112" cy="129.343598079025" r="3.00520382004283" fill="rgb(179,0,0)" /><circle cx="764.17712036088" cy="128.680229499501" r="3.00520382004283" fill="rgb(179,0,0)" /><circle cx="772.833735367335" cy="124.757597693772" r="3.00520382004283" fill="rgb(179,0,0)" /><circle cx="785.530177297817" cy="106.707906447905" r="3.00520382004283" fill="rgb(179,0,0)" /><circle cx="797.286035890564" cy="101.954370048837" r="3.00520382004283" fill="rgb(179,0,0)" /><circle cx="806.051312503046" cy="105.027757349345" r="3.00520382004283" fill="rgb(179,0,0)" /><circle cx="809.011229466178" cy="135.036205676484" r="3.00520382004283" fill="rgb(179,0,0)" /><circle cx="820.201940316962" cy="89.9434947158521" r="3.00520382004283" fill="rgb(179,0,0)" /><circle cx="825.62293120961" cy="107.439414448148" r="3.00520382004283" fill="rgb(179,0,0)" /><circle cx="829.690712305578" cy="113.512184674382" r="3.00520382004283" fill="rgb(179,0,0)" /><circle cx="832.888172778375" cy="118.80186416106" r="3.00520382004283" fill="rgb(179,0,0)" /><circle cx="837.647532180649" cy="104.239412753576" r="3.00520382004283" fill="rgb(179,0,0)" /><circle cx="840.642325676865" cy="116.234455277406" r="3.00520382004283" fill="rgb(179,0,0)" /><circle cx="843.323740693069" cy="117.979915720277" r="3.00520382004283" fill="rgb(179,0,0)" /><circle cx="845.342627069733" cy="125.340791004483" r="3.00520382004283" fill="rgb(179,0,0)" /><circle cx="847.181918657792" cy="127.081816690007" r="3.00520382004283" fill="rgb(179,0,0)" /><circle cx="848.345071575571" cy="140.303848060914" r="3.00520382004283" fill="rgb(179,0,0)" /><circle cx="849.540041703008" cy="138.78584433562" r="3.00520382004283" fill="rgb(179,0,0)" /><circle cx="850.605709359738" cy="141.649540877058" r="3.00520382004283" fill="rgb(179,0,0)" /><circle cx="852.052353600994" cy="131.513928451238" r="3.00520382004283" fill="rgb(179,0,0)" /><circle cx="853.301693514384" cy="135.238591444634" r="3.00520382004283" fill="rgb(179,0,0)" /><circle cx="854.518137815065" cy="135.340285837416" r="3.00520382004283" fill="rgb(179,0,0)" /><circle cx="855.742180295208" cy="134.436916740813" r="3.00520382004283" fill="rgb(179,0,0)" /><circle cx="856.709765304553" cy="141.030555691974" r="3.00520382004283" fill="rgb(179,0,0)" /><circle cx="857.238058464169" cy="159.210562612216" r="3.00520382004283" fill="rgb(179,0,0)" /><circle cx="857.599857411847" cy="170.596565289912" r="3.00520382004283" fill="rgb(179,0,0)" /><circle cx="858.290150306426" cy="150.416113535001" r="3.00520382004283" fill="rgb(179,0,0)" /><circle cx="858.69635170111" cy="166.40879576484" r="3.00520382004283" fill="rgb(179,0,0)" /><circle cx="859.208850958309" cy="158.990041769673" r="3.00520382004283" fill="rgb(179,0,0)" /><circle cx="859.640593266122" cy="163.989534531577" r="3.00520382004283" fill="rgb(179,0,0)" /><circle cx="859.914489709555" cy="177.783148176992" r="3.00520382004283" fill="rgb(179,0,0)" /><circle cx="860.194122530918" cy="176.984076606305" r="3.00520382004283" fill="rgb(179,0,0)" /><circle cx="860.358341787083" cy="193.22876455277" r="3.00520382004283" fill="rgb(179,0,0)" /><circle cx="860.635637097976" cy="176.984076606305" r="3.00520382004283" fill="rgb(179,0,0)" /><circle cx="860.819693895517" cy="189.457207456083" r="3.00520382004283" fill="rgb(179,0,0)" /><circle cx="861.091065056428" cy="177.381017930497" r="3.00520382004283" fill="rgb(179,0,0)" /><circle cx="861.333061114215" cy="180.755633702992" r="3.00520382004283" fill="rgb(179,0,0)" /><circle cx="861.601810059842" cy="177.381017930497" r="3.00520382004283" fill="rgb(179,0,0)" /><circle cx="861.8691963638" cy="177.381017930497" r="3.00520382004283" fill="rgb(179,0,0)" /><circle cx="862.038648109145" cy="191.285221961528" r="3.00520382004283" fill="rgb(179,0,0)" /><circle cx="862.324442152407" cy="175.072746086909" r="3.00520382004283" fill="rgb(179,0,0)" /><circle cx="862.478745662036" cy="193.904891237794" r="3.00520382004283" fill="rgb(179,0,0)" /><circle cx="862.649666141327" cy="190.663735656413" r="3.00520382004283" fill="rgb(179,0,0)" /><circle cx="862.918596454817" cy="176.592191997142" r="3.00520382004283" fill="rgb(179,0,0)" /><circle cx="863.01019578821" cy="209.619177668953" r="3.00520382004283" fill="rgb(179,0,0)" /><circle cx="863.142225681097" cy="198.307034632504" r="3.00520382004283" fill="rgb(179,0,0)" /><circle cx="863.223310853354" cy="213.242481342309" r="3.00520382004283" fill="rgb(179,0,0)" /><circle cx="863.321122719646" cy="207.420919445705" r="3.00520382004283" fill="rgb(179,0,0)" /><circle cx="863.43556814591" cy="202.527687673055" r="3.00520382004283" fill="rgb(179,0,0)" /><circle cx="863.663716585425" cy="181.204729646856" r="3.00520382004283" fill="rgb(179,0,0)" /><circle cx="863.737318493419" cy="215.919171071975" r="3.00520382004283" fill="rgb(179,0,0)" /><circle cx="863.934199777082" cy="185.572093472229" r="3.00520382004283" fill="rgb(179,0,0)" /><circle cx="864.060616619328" cy="199.10610620319" r="3.00520382004283" fill="rgb(179,0,0)" /><circle cx="864.097154481381" cy="237.242129098174" r="3.00520382004283" fill="rgb(179,0,0)" /><circle cx="864.358821627713" cy="176.592191997142" r="3.00520382004283" fill="rgb(179,0,0)" /><circle cx="864.47763307459" cy="200.769350492532" r="3.00520382004283" fill="rgb(179,0,0)" /><circle cx="864.678343425715" cy="184.546580983619" r="3.00520382004283" fill="rgb(179,0,0)" /><circle cx="864.845566103487" cy="190.054556823277" r="3.00520382004283" fill="rgb(179,0,0)" /><circle cx="865.145888164505" cy="171.905806526571" r="3.00520382004283" fill="rgb(179,0,0)" /><circle cx="865.279178381208" cy="196.768587779233" r="3.00520382004283" fill="rgb(179,0,0)" /><circle cx="865.366771245611" cy="209.619177668953" r="3.00520382004283" fill="rgb(179,0,0)" /><circle cx="865.535059786269" cy="189.457207456083" r="3.00520382004283" fill="rgb(179,0,0)" /><circle cx="865.638355667526" cy="204.392654165888" r="3.00520382004283" fill="rgb(179,0,0)" /><circle cx="865.802566422937" cy="190.054556823277" r="3.00520382004283" fill="rgb(179,0,0)" /><circle cx="865.905340162684" cy="204.392654165888" r="3.00520382004283" fill="rgb(179,0,0)" /><circle cx="866.06552423128" cy="190.663735656413" r="3.00520382004283" fill="rgb(179,0,0)" /><circle cx="866.119876165206" cy="223.850645699253" r="3.00520382004283" fill="rgb(179,0,0)" /><circle cx="866.234789793788" cy="200.769350492532" r="3.00520382004283" fill="rgb(179,0,0)" /><circle cx="866.292152843516" cy="222.09230851873" r="3.00520382004283" fill="rgb(179,0,0)" /><circle cx="866.400335323205" cy="202.527687673055" r="3.00520382004283" fill="rgb(179,0,0)" /><circle cx="866.517811699497" cy="199.926488842136" r="3.00520382004283" fill="rgb(179,0,0)" /><circle cx="866.603372844363" cy="209.619177668953" r="3.00520382004283" fill="rgb(179,0,0)" /><circle cx="866.698278254231" cy="206.378022087572" r="3.00520382004283" fill="rgb(179,0,0)" /><circle cx="866.843468966709" cy="193.22876455277" r="3.00520382004283" fill="rgb(179,0,0)" /><circle cx="866.849772547701" cy="289.684486270682" r="3.00520382004283" fill="rgb(179,0,0)" /><circle cx="866.931650607947" cy="210.780165482282" r="3.00520382004283" fill="rgb(179,0,0)" /><circle cx="866.969397648163" cy="234.565439368508" r="3.00520382004283" fill="rgb(179,0,0)" /><circle cx="867.076201103157" cy="202.527687673055" r="3.00520382004283" fill="rgb(179,0,0)" /><circle cx="867.195314255534" cy="199.10610620319" r="3.00520382004283" fill="rgb(179,0,0)" /><circle cx="867.367239763811" cy="187.731753791039" r="3.00520382004283" fill="rgb(179,0,0)" /><circle cx="289.707486606553" cy="348.503966146177" r="3.00520382004283" fill="rgb(179,119,0)" /><circle cx="311.089996634743" cy="369.826924172376" r="3.00520382004283" fill="rgb(179,119,0)" /><circle cx="411.136058035125" cy="282.670125574748" r="3.00520382004283" fill="rgb(179,119,0)" /><circle cx="470.801406572143" cy="254.846766102525" r="3.00520382004283" fill="rgb(179,119,0)" /><circle cx="519.122693339462" cy="230.392715316472" r="3.00520382004283" fill="rgb(179,119,0)" /><circle cx="539.705295702913" cy="237.423010691432" r="3.00520382004283" fill="rgb(179,119,0)" /><circle cx="557.679200124706" cy="230.392715316472" r="3.00520382004283" fill="rgb(179,119,0)" /><circle cx="575.680054520342" cy="219.853540730093" r="3.00520382004283" fill="rgb(179,119,0)" /><circle cx="595.126002132072" cy="206.531202169907" r="3.00520382004283" fill="rgb(179,119,0)" /><circle cx="611.1754186919" cy="202.1392130997" r="3.00520382004283" fill="rgb(179,119,0)" /><circle cx="623.79137780453" cy="201.22862788447" r="3.00520382004283" fill="rgb(179,119,0)" /><circle cx="645.236186432425" cy="174.83576029654" r="3.00520382004283" fill="rgb(179,119,0)" /><circle cx="654.934002506643" cy="190.333408326733" r="3.00520382004283" fill="rgb(179,119,0)" /><circle cx="665.803017069326" cy="180.816255073501" r="3.00520382004283" fill="rgb(179,119,0)" /><circle cx="676.917447426817" cy="173.715058667337" r="3.00520382004283" fill="rgb(179,119,0)" /><circle cx="688.640685677596" cy="165.407141769775" r="3.00520382004283" fill="rgb(179,119,0)" /><circle cx="698.328403304188" cy="165.04920271894" r="3.00520382004283" fill="rgb(179,119,0)" /><circle cx="710.890847294403" cy="150.536383717646" r="3.00520382004283" fill="rgb(179,119,0)" /><circle cx="722.81066155488" cy="145.018299200197" r="3.00520382004283" fill="rgb(179,119,0)" /><circle cx="734.310192725815" cy="139.296435377157" r="3.00520382004283" fill="rgb(179,119,0)" /><circle cx="739.648096366141" cy="158.042725908963" r="3.00520382004283" fill="rgb(179,119,0)" /><circle cx="750.475213544631" cy="131.531150184457" r="3.00520382004283" fill="rgb(179,119,0)" /><circle cx="768.859857755258" cy="106.621854681522" r="3.00520382004283" fill="rgb(179,119,0)" /><circle cx="778.387554725615" cy="118.815150217138" r="3.00520382004283" fill="rgb(179,119,0)" /><circle cx="786.653012072357" cy="118.007734064745" r="3.00520382004283" fill="rgb(179,119,0)" /><circle cx="793.128209080561" cy="121.229853429057" r="3.00520382004283" fill="rgb(179,119,0)" /><circle cx="799.387312614512" cy="118.561094024975" r="3.00520382004283" fill="rgb(179,119,0)" /><circle cx="805.997041948606" cy="113.128871237839" r="3.00520382004283" fill="rgb(179,119,0)" /><circle cx="813.322597432409" cy="105.896620865454" r="3.00520382004283" fill="rgb(179,119,0)" /><circle cx="820.503570262811" cy="102.279740369997" r="3.00520382004283" fill="rgb(179,119,0)" /><circle cx="827.387919021259" cy="99.4769736626644" r="3.00520382004283" fill="rgb(179,119,0)" /><circle cx="832.594792562155" cy="104.55079310198" r="3.00520382004283" fill="rgb(179,119,0)" /><circle cx="836.701226489452" cy="109.142914881858" r="3.00520382004283" fill="rgb(179,119,0)" /><circle cx="840.862719857703" cy="106.321500267966" r="3.00520382004283" fill="rgb(179,119,0)" /><circle cx="844.692062120165" cy="106.550918771993" r="3.00520382004283" fill="rgb(179,119,0)" /><circle cx="848.915901673204" cy="101.184298006524" r="3.00520382004283" fill="rgb(179,119,0)" /><circle cx="852.647437987233" cy="102.678016548816" r="3.00520382004283" fill="rgb(179,119,0)" /><circle cx="856.169374721058" cy="102.341471211718" r="3.00520382004283" fill="rgb(179,119,0)" /><circle cx="859.063674897376" cy="106.509614904541" r="3.00520382004283" fill="rgb(179,119,0)" /><circle cx="861.205893549318" cy="114.298860028004" r="3.00520382004283" fill="rgb(179,119,0)" /><circle cx="863.265973336218" cy="114.276081407339" r="3.00520382004283" fill="rgb(179,119,0)" /><circle cx="865.597425327275" cy="109.187912837977" r="3.00520382004283" fill="rgb(179,119,0)" /><circle cx="867.778011239719" cy="109.930155816765" r="3.00520382004283" fill="rgb(179,119,0)" /><circle cx="869.835484769284" cy="110.482054255281" r="3.00520382004283" fill="rgb(179,119,0)" /><circle cx="871.908862798879" cy="109.040308905386" r="3.00520382004283" fill="rgb(179,119,0)" /><circle cx="873.704189844308" cy="112.341989121606" r="3.00520382004283" fill="rgb(179,119,0)" /><circle cx="875.155903875469" cy="117.930710034461" r="3.00520382004283" fill="rgb(179,119,0)" /><circle cx="876.351361600205" cy="123.13349958338" r="3.00520382004283" fill="rgb(179,119,0)" /><circle cx="877.822646006905" cy="115.968856778723" r="3.00520382004283" fill="rgb(179,119,0)" /><circle cx="879.389287943082" cy="113.150815734645" r="3.00520382004283" fill="rgb(179,119,0)" /><circle cx="880.820397984417" cy="115.060176236607" r="3.00520382004283" fill="rgb(179,119,0)" /><circle cx="882.471647116219" cy="109.759288966277" r="3.00520382004283" fill="rgb(179,119,0)" /><circle cx="883.870115008492" cy="113.981484065367" r="3.00520382004283" fill="rgb(179,119,0)" /><circle cx="884.922931872936" cy="122.000642911066" r="3.00520382004283" fill="rgb(179,119,0)" /><circle cx="885.896429873144" cy="123.819300478605" r="3.00520382004283" fill="rgb(179,119,0)" /><circle cx="886.754982471207" cy="127.150293894343" r="3.00520382004283" fill="rgb(179,119,0)" /><circle cx="887.950244484541" cy="116.372464323742" r="3.00520382004283" fill="rgb(179,119,0)" /><circle cx="889.029482469169" cy="118.850357689709" r="3.00520382004283" fill="rgb(179,119,0)" /><circle cx="890.086476525144" cy="118.867976548038" r="3.00520382004283" fill="rgb(179,119,0)" /><circle cx="890.992033937873" cy="123.052625331603" r="3.00520382004283" fill="rgb(179,119,0)" /><circle cx="891.652630422645" cy="132.298738254492" r="3.00520382004283" fill="rgb(179,119,0)" /><circle cx="892.440825797906" cy="126.443340395758" r="3.00520382004283" fill="rgb(179,119,0)" /><circle cx="893.398175895985" cy="119.953139527323" r="3.00520382004283" fill="rgb(179,119,0)" /><circle cx="894.137858401693" cy="127.393477182896" r="3.00520382004283" fill="rgb(179,119,0)" /><circle cx="894.969878033468" cy="123.316247798852" r="3.00520382004283" fill="rgb(179,119,0)" /><circle cx="895.610028977157" cy="130.95145374357" r="3.00520382004283" fill="rgb(179,119,0)" /><circle cx="896.2336993258" cy="131.38519874233" r="3.00520382004283" fill="rgb(179,119,0)" /><circle cx="896.695601168208" cy="140.305703780517" r="3.00520382004283" fill="rgb(179,119,0)" /><circle cx="897.245694682959" cy="134.635180181124" r="3.00520382004283" fill="rgb(179,119,0)" /><circle cx="897.7888141638" cy="134.708827632631" r="3.00520382004283" fill="rgb(179,119,0)" /><circle cx="898.271498744046" cy="138.038593527228" r="3.00520382004283" fill="rgb(179,119,0)" /><circle cx="898.773454697776" cy="136.547076546982" r="3.00520382004283" fill="rgb(179,119,0)" /><circle cx="899.254305053307" cy="137.581877438217" r="3.00520382004283" fill="rgb(179,119,0)" /><circle cx="899.603078330333" cy="147.218848432628" r="3.00520382004283" fill="rgb(179,119,0)" /><circle cx="899.907773839796" cy="151.184564642947" r="3.00520382004283" fill="rgb(179,119,0)" /><circle cx="900.174586066784" cy="155.102157954553" r="3.00520382004283" fill="rgb(179,119,0)" /><circle cx="900.530871770813" cy="146.024247984995" r="3.00520382004283" fill="rgb(179,119,0)" /><circle cx="900.874262350899" cy="146.954222922967" r="3.00520382004283" fill="rgb(179,119,0)" /><circle cx="901.197466146359" cy="148.623567136145" r="3.00520382004283" fill="rgb(179,119,0)" /><circle cx="901.459781226201" cy="154.874075161416" r="3.00520382004283" fill="rgb(179,119,0)" /><circle cx="901.65319742027" cy="164.114573085581" r="3.00520382004283" fill="rgb(179,119,0)" /><circle cx="901.831993830804" cy="166.423841237876" r="3.00520382004283" fill="rgb(179,119,0)" /><circle cx="902.167280693354" cy="146.932273206872" r="3.00520382004283" fill="rgb(179,119,0)" /><circle cx="902.378547571428" cy="160.981005763058" r="3.00520382004283" fill="rgb(179,119,0)" /><circle cx="902.613560864452" cy="157.574014061455" r="3.00520382004283" fill="rgb(179,119,0)" /><circle cx="902.799736816831" cy="164.617303111709" r="3.00520382004283" fill="rgb(179,119,0)" /><circle cx="903.005439977274" cy="161.434687083295" r="3.00520382004283" fill="rgb(179,119,0)" /><circle cx="903.163578844535" cy="169.417906930178" r="3.00520382004283" fill="rgb(179,119,0)" /><circle cx="903.268975380516" cy="181.82275245602" r="3.00520382004283" fill="rgb(179,119,0)" /><circle cx="903.458439095799" cy="163.69551052613" r="3.00520382004283" fill="rgb(179,119,0)" /><circle cx="903.612907988826" cy="169.877057630073" r="3.00520382004283" fill="rgb(179,119,0)" /><circle cx="903.761606319412" cy="170.959859684166" r="3.00520382004283" fill="rgb(179,119,0)" /><circle cx="903.912192912252" cy="170.484386141365" r="3.00520382004283" fill="rgb(179,119,0)" /><circle cx="904.06626017446" cy="169.692574163822" r="3.00520382004283" fill="rgb(179,119,0)" /><circle cx="904.188227138776" cy="176.799395595772" r="3.00520382004283" fill="rgb(179,119,0)" /><circle cx="904.25701052804" cy="194.364168629733" r="3.00520382004283" fill="rgb(179,119,0)" /><circle cx="904.347896182724" cy="185.745929943322" r="3.00520382004283" fill="rgb(179,119,0)" /><circle cx="904.481307920365" cy="173.872680835248" r="3.00520382004283" fill="rgb(179,119,0)" /><circle cx="904.616431191901" cy="173.402216725741" r="3.00520382004283" fill="rgb(179,119,0)" /><circle cx="904.733727896988" cy="177.680903640448" r="3.00520382004283" fill="rgb(179,119,0)" /><circle cx="904.828103096587" cy="184.307813252982" r="3.00520382004283" fill="rgb(179,119,0)" /><circle cx="904.903527109247" cy="191.153790965678" r="3.00520382004283" fill="rgb(179,119,0)" /><circle cx="904.948775020418" cy="206.837299479511" r="3.00520382004283" fill="rgb(179,119,0)" /><circle cx="905.020639355612" cy="192.571669840145" r="3.00520382004283" fill="rgb(179,119,0)" /><circle cx="905.093082470727" cy="192.282817710364" r="3.00520382004283" fill="rgb(179,119,0)" /><circle cx="905.132985215855" cy="210.595484471748" r="3.00520382004283" fill="rgb(179,119,0)" /><circle cx="905.249589564822" cy="177.561899523755" r="3.00520382004283" fill="rgb(179,119,0)" /><circle cx="905.310265829685" cy="197.605324211114" r="3.00520382004283" fill="rgb(179,119,0)" /><circle cx="163.535284615695" cy="422.104417307511" r="3.00520382004283" fill="rgb(0,128,21)" /><circle cx="200.088926946321" cy="422.104417307511" r="3.00520382004283" fill="rgb(0,128,21)" /><circle cx="248.41021371364" cy="388.308328431535" r="3.00520382004283" fill="rgb(0,128,21)" /><circle cx="258.025079305137" cy="422.104417307511" r="3.00520382004283" fill="rgb(0,128,21)" /><circle cx="273.196211607574" cy="400.781459281313" r="3.00520382004283" fill="rgb(0,128,21)" /><circle cx="289.990110670622" cy="388.308328431535" r="3.00520382004283" fill="rgb(0,128,21)" /><circle cx="294.578721635763" cy="422.104417307511" r="3.00520382004283" fill="rgb(0,128,21)" /><circle cx="298.799834538668" cy="422.104417307511" r="3.00520382004283" fill="rgb(0,128,21)" /><circle cx="306.346366072456" cy="400.781459281313" r="3.00520382004283" fill="rgb(0,128,21)" /><circle cx="351.029261429657" cy="329.948125947979" r="3.00520382004283" fill="rgb(0,128,21)" /><circle cx="372.911640210076" cy="333.189281529361" r="3.00520382004283" fill="rgb(0,128,21)" /><circle cx="378.567314600812" cy="366.985370405337" r="3.00520382004283" fill="rgb(0,128,21)" /><circle cx="379.453650733709" cy="422.104417307511" r="3.00520382004283" fill="rgb(0,128,21)" /><circle cx="381.182846911911" cy="400.781459281313" r="3.00520382004283" fill="rgb(0,128,21)" /><circle cx="387.582903760283" cy="358.135543228915" r="3.00520382004283" fill="rgb(0,128,21)" /><circle cx="391.919792249791" cy="366.985370405337" r="3.00520382004283" fill="rgb(0,128,21)" /><circle cx="406.917165717873" cy="323.083666693242" r="3.00520382004283" fill="rgb(0,128,21)" /><circle cx="416.878978340486" cy="328.447217263859" r="3.00520382004283" fill="rgb(0,128,21)" /><circle cx="428.819244072117" cy="316.466297327584" r="3.00520382004283" fill="rgb(0,128,21)" /><circle cx="448.211489277458" cy="292.301702657486" r="3.00520382004283" fill="rgb(0,128,21)" /><circle cx="460.312152691461" cy="297.729948364043" r="3.00520382004283" fill="rgb(0,128,21)" /><circle cx="481.694662719651" cy="270.307535622846" r="3.00520382004283" fill="rgb(0,128,21)" /><circle cx="495.032162164927" cy="274.829079045805" r="3.00520382004283" fill="rgb(0,128,21)" /><circle cx="501.319865823495" cy="292.301702657486" r="3.00520382004283" fill="rgb(0,128,21)" /><circle cx="525.613258343561" cy="241.550019580685" r="3.00520382004283" fill="rgb(0,128,21)" /><circle cx="540.880536084692" cy="244.464626395723" r="3.00520382004283" fill="rgb(0,128,21)" /><circle cx="554.643629163779" cy="239.208262434599" r="3.00520382004283" fill="rgb(0,128,21)" /><circle cx="568.895091145597" cy="229.958396775584" r="3.00520382004283" fill="rgb(0,128,21)" /><circle cx="580.744957628091" cy="228.051376242296" r="3.00520382004283" fill="rgb(0,128,21)" /><circle cx="593.901469494306" cy="217.525036488297" r="3.00520382004283" fill="rgb(0,128,21)" /><circle cx="608.755325111645" cy="205.600653518575" r="3.00520382004283" fill="rgb(0,128,21)" /><circle cx="625.911670677128" cy="191.797282096337" r="3.00520382004283" fill="rgb(0,128,21)" /><circle cx="636.052033112098" cy="200.100205520824" r="3.00520382004283" fill="rgb(0,128,21)" /><circle cx="665.774310726621" cy="155.03369965861" r="3.00520382004283" fill="rgb(0,128,21)" /><circle cx="683.377811600835" cy="157.607125958469" r="3.00520382004283" fill="rgb(0,128,21)" /><circle cx="698.644108688884" cy="152.43757948004" r="3.00520382004283" fill="rgb(0,128,21)" /><circle cx="713.550007540659" cy="144.377294665589" r="3.00520382004283" fill="rgb(0,128,21)" /><circle cx="726.977646921403" cy="139.34552077871" r="3.00520382004283" fill="rgb(0,128,21)" /><circle cx="737.924646758129" cy="138.547333235992" r="3.00520382004283" fill="rgb(0,128,21)" /><circle cx="748.587936732605" cy="133.054931520806" r="3.00520382004283" fill="rgb(0,128,21)" /><circle cx="761.380422707189" cy="120.590317192166" r="3.00520382004283" fill="rgb(0,128,21)" /><circle cx="771.544812576644" cy="120.99672900167" r="3.00520382004283" fill="rgb(0,128,21)" /><circle cx="780.932924805619" cy="117.744872870926" r="3.00520382004283" fill="rgb(0,128,21)" /><circle cx="788.763559315507" cy="118.315436429001" r="3.00520382004283" fill="rgb(0,128,21)" /><circle cx="796.064207487379" cy="116.061690799538" r="3.00520382004283" fill="rgb(0,128,21)" /><circle cx="804.016963292164" cy="108.976299008844" r="3.00520382004283" fill="rgb(0,128,21)" /><circle cx="810.644829445032" cy="110.338545668819" r="3.00520382004283" fill="rgb(0,128,21)" /><circle cx="817.631595468301" cy="104.74310154799" r="3.00520382004283" fill="rgb(0,128,21)" /><circle cx="824.137938698716" cy="103.002126991822" r="3.00520382004283" fill="rgb(0,128,21)" /><circle cx="830.148006119905" cy="101.795117935435" r="3.00520382004283" fill="rgb(0,128,21)" /><circle cx="834.758752647916" cy="106.857719256286" r="3.00520382004283" fill="rgb(0,128,21)" /><circle cx="839.19686339624" cy="105.393117919037" r="3.00520382004283" fill="rgb(0,128,21)" /><circle cx="843.285103133602" cy="105.433683207201" r="3.00520382004283" fill="rgb(0,128,21)" /><circle cx="847.482919063904" cy="102.202833486637" r="3.00520382004283" fill="rgb(0,128,21)" /><circle cx="851.320363601553" cy="102.621724292393" r="3.00520382004283" fill="rgb(0,128,21)" /><circle cx="855.18633985426" cy="100.146916124929" r="3.00520382004283" fill="rgb(0,128,21)" /><circle cx="858.266097960097" cy="105.117859359463" r="3.00520382004283" fill="rgb(0,128,21)" /><circle cx="861.086308107571" cy="106.106063162327" r="3.00520382004283" fill="rgb(0,128,21)" /><circle cx="863.436364177366" cy="110.209419128498" r="3.00520382004283" fill="rgb(0,128,21)" /><circle cx="865.837802729983" cy="108.158098496221" r="3.00520382004283" fill="rgb(0,128,21)" /><circle cx="868.269804784137" cy="106.359227728645" r="3.00520382004283" fill="rgb(0,128,21)" /><circle cx="870.813856800825" cy="103.521976489496" r="3.00520382004283" fill="rgb(0,128,21)" /><circle cx="873.275035803395" cy="103.081089256291" r="3.00520382004283" fill="rgb(0,128,21)" /><circle cx="875.668677953228" cy="102.521199271225" r="3.00520382004283" fill="rgb(0,128,21)" /><circle cx="877.570618108478" cy="108.342879518237" r="3.00520382004283" fill="rgb(0,128,21)" /><circle cx="879.295587487504" cy="110.289754975321" r="3.00520382004283" fill="rgb(0,128,21)" /><circle cx="881.115462650052" cy="107.608088879284" r="3.00520382004283" fill="rgb(0,128,21)" /><circle cx="882.925865003979" cy="106.709816984285" r="3.00520382004283" fill="rgb(0,128,21)" /><circle cx="884.712287293468" cy="106.070977069683" r="3.00520382004283" fill="rgb(0,128,21)" /><circle cx="886.862012949774" cy="99.2273520016052" r="3.00520382004283" fill="rgb(0,128,21)" /><circle cx="888.740000960669" cy="102.210330827311" r="3.00520382004283" fill="rgb(0,128,21)" /><circle cx="890.27065933972" cy="107.507718020152" r="3.00520382004283" fill="rgb(0,128,21)" /><circle cx="891.480570536237" cy="113.942628769352" r="3.00520382004283" fill="rgb(0,128,21)" /><circle cx="892.766094974381" cy="111.349888479307" r="3.00520382004283" fill="rgb(0,128,21)" /><circle cx="894.170432664071" cy="107.845820367882" r="3.00520382004283" fill="rgb(0,128,21)" /><circle cx="895.646347095588" cy="105.476386522209" r="3.00520382004283" fill="rgb(0,128,21)" /><circle cx="897.298633201091" cy="101.091202019521" r="3.00520382004283" fill="rgb(0,128,21)" /><circle cx="898.67031194773" cy="105.9352629424" r="3.00520382004283" fill="rgb(0,128,21)" /><circle cx="899.844574125482" cy="109.973281510199" r="3.00520382004283" fill="rgb(0,128,21)" /><circle cx="900.851999228564" cy="114.051245366955" r="3.00520382004283" fill="rgb(0,128,21)" /><circle cx="901.912444035629" cy="111.870232270266" r="3.00520382004283" fill="rgb(0,128,21)" /><circle cx="902.963832576766" cy="111.518131838471" r="3.00520382004283" fill="rgb(0,128,21)" /><circle cx="904.169818974486" cy="106.63937876145" r="3.00520382004283" fill="rgb(0,128,21)" /><circle cx="905.286692771609" cy="108.323436709202" r="3.00520382004283" fill="rgb(0,128,21)" /><circle cx="906.32868063916" cy="109.828861891398" r="3.00520382004283" fill="rgb(0,128,21)" /><circle cx="907.116491152856" cy="117.897448087717" r="3.00520382004283" fill="rgb(0,128,21)" /><circle cx="907.850115863681" cy="119.645871466736" r="3.00520382004283" fill="rgb(0,128,21)" /><circle cx="908.692095665441" cy="114.948444489552" r="3.00520382004283" fill="rgb(0,128,21)" /><circle cx="909.488197220212" cy="116.194307152938" r="3.00520382004283" fill="rgb(0,128,21)" /><circle cx="910.516135554735" cy="107.79970047414" r="3.00520382004283" fill="rgb(0,128,21)" /><circle cx="911.439763774763" cy="110.52220308478" r="3.00520382004283" fill="rgb(0,128,21)" /><circle cx="912.345553302245" cy="110.588589091173" r="3.00520382004283" fill="rgb(0,128,21)" /><circle cx="913.021569350807" cy="119.128208782684" r="3.00520382004283" fill="rgb(0,128,21)" /><circle cx="913.780503094646" cy="115.150474568381" r="3.00520382004283" fill="rgb(0,128,21)" /><circle cx="914.484148761221" cy="117.050790234959" r="3.00520382004283" fill="rgb(0,128,21)" /><circle cx="915.281426487763" cy="112.769850146808" r="3.00520382004283" fill="rgb(0,128,21)" /><circle cx="916.134048624141" cy="110.2240100501" r="3.00520382004283" fill="rgb(0,128,21)" /><circle cx="916.923585420128" cy="112.109810996538" r="3.00520382004283" fill="rgb(0,128,21)" /><circle cx="917.632781894354" cy="114.97398062201" r="3.00520382004283" fill="rgb(0,128,21)" /><circle cx="918.299169790348" cy="116.488091284611" r="3.00520382004283" fill="rgb(0,128,21)" /><circle cx="918.907204371608" cy="118.935502097687" r="3.00520382004283" fill="rgb(0,128,21)" /><circle cx="919.494348985537" cy="119.662396244638" r="3.00520382004283" fill="rgb(0,128,21)" /><circle cx="920.064228968112" cy="120.243058870236" r="3.00520382004283" fill="rgb(0,128,21)" /><circle cx="920.760316204349" cy="113.719725804556" r="3.00520382004283" fill="rgb(0,128,21)" /><circle cx="921.49837326453" cy="111.500378618092" r="3.00520382004283" fill="rgb(0,128,21)" /><circle cx="922.222668490076" cy="111.652882569859" r="3.00520382004283" fill="rgb(0,128,21)" /><circle cx="922.815362623581" cy="117.437360947714" r="3.00520382004283" fill="rgb(0,128,21)" /><circle cx="923.425964544414" cy="116.170689089742" r="3.00520382004283" fill="rgb(0,128,21)" /><circle cx="924.028224393435" cy="116.240118815613" r="3.00520382004283" fill="rgb(0,128,21)" /><circle cx="924.592305542422" cy="117.914621210233" r="3.00520382004283" fill="rgb(0,128,21)" /><circle cx="925.191012323099" cy="115.742814347037" r="3.00520382004283" fill="rgb(0,128,21)" /><circle cx="925.882594711414" cy="110.930150936323" r="3.00520382004283" fill="rgb(0,128,21)" /><circle cx="926.509252104934" cy="113.578344907711" r="3.00520382004283" fill="rgb(0,128,21)" /><rect x="275" y="163" width="102" height="38.25" style="fill:rgb(245,245,245);stroke:rgb(0,0,0);stroke-width:1.20208152801713" /><text x="309" y="197" font-family="monospace" fill="rgb(0,0,0)" transform="rotate(0 309,197)" font-size="12" dominant-baseline="middle" text-anchor="start">Austria</text><circle cx="292" cy="197" r="3.00520382004283" fill="rgb(179,0,0)" /><text x="309" y="184.25" font-family="monospace" fill="rgb(0,0,0)" transform="rotate(0 309,184.25)" font-size="12" dominant-baseline="middle" text-anchor="start">Italy</text><circle cx="292" cy="184.25" r="3.00520382004283" fill="rgb(179,119,0)" /><text x="309" y="171.5" font-family="monospace" fill="rgb(0,0,0)" transform="rotate(0 309,171.5)" font-size="12" dominant-baseline="middle" text-anchor="start">Usa</text><circle cx="292" cy="171.5" r="3.00520382004283" fill="rgb(0,128,21)" /></svg>